<svg width="26" height="26" viewBox="0 0 26 26" fill="none" xmlns="http://www.w3.org/2000/svg">
<path d="M13 23.4C10.2417 23.4 7.59647 22.3043 5.64609 20.3539C3.69571 18.4035 2.6 15.7583 2.6 13C2.6 10.2417 3.69571 7.59647 5.64609 5.64609C7.59647 3.69571 10.2417 2.6 13 2.6C15.7583 2.6 18.4035 3.69571 20.3539 5.64609C22.3043 7.59647 23.4 10.2417 23.4 13C23.4 15.7583 22.3043 18.4035 20.3539 20.3539C18.4035 22.3043 15.7583 23.4 13 23.4M13 0C11.2928 0 9.60235 0.336255 8.02511 0.989566C6.44788 1.64288 5.01477 2.60045 3.80761 3.80761C1.36964 6.24558 0 9.55219 0 13C0 16.4478 1.36964 19.7544 3.80761 22.1924C5.01477 23.3995 6.44788 24.3571 8.02511 25.0104C9.60235 25.6637 11.2928 26 13 26C16.4478 26 19.7544 24.6304 22.1924 22.1924C24.6304 19.7544 26 16.4478 26 13C26 11.2928 25.6637 9.60235 25.0104 8.02511C24.3571 6.44788 23.3995 5.01477 22.1924 3.80761C20.9852 2.60045 19.5521 1.64288 17.9749 0.989566C16.3977 0.336255 14.7072 0 13 0M13 6.5C11.2761 6.5 9.62279 7.18482 8.40381 8.40381C7.18482 9.62279 6.5 11.2761 6.5 13C6.5 14.7239 7.18482 16.3772 8.40381 17.5962C9.62279 18.8152 11.2761 19.5 13 19.5C14.7239 19.5 16.3772 18.8152 17.5962 17.5962C18.8152 16.3772 19.5 14.7239 19.5 13C19.5 11.2761 18.8152 9.62279 17.5962 8.40381C16.3772 7.18482 14.7239 6.5 13 6.5V6.5Z" fill="#B1B0B0"/>
</svg>
